<svg width="358" height="307" viewBox="0 0 358 307" fill="none" xmlns="http://www.w3.org/2000/svg">
<path d="M35.432 35.6514V27.1958H38.0025L38.087 28.8362C38.3576 28.2386 38.7353 27.7877 39.2201 27.4833C39.7161 27.1789 40.2855 27.0267 40.9281 27.0267C41.5482 27.0267 42.0893 27.1676 42.5516 27.4494C43.0251 27.7313 43.3746 28.1484 43.6001 28.7009C43.8594 28.1484 44.2427 27.7313 44.75 27.4494C45.2686 27.1676 45.8324 27.0267 46.4412 27.0267C47.2754 27.0267 47.9632 27.2803 48.5043 27.7877C49.0568 28.2837 49.333 29.0278 49.333 30.0199V35.6514H46.4581V30.6795C46.4581 30.1383 46.351 29.7606 46.1368 29.5464C45.9225 29.3322 45.6463 29.2251 45.3081 29.2251C44.8797 29.2251 44.5246 29.3886 44.2427 29.7155C43.9608 30.0312 43.8199 30.5047 43.8199 31.1361V35.6514H40.945V30.6795C40.945 30.1383 40.8379 29.7606 40.6237 29.5464C40.4095 29.3322 40.1333 29.2251 39.7951 29.2251C39.4005 29.2251 39.051 29.3773 38.7466 29.6817C38.4534 29.9861 38.3069 30.4878 38.3069 31.1868V35.6514H35.432ZM56.0705 30.2905C56.0705 29.8959 55.9577 29.5859 55.7323 29.3604C55.5181 29.1236 55.2249 29.0053 54.8529 29.0053C54.4808 29.0053 54.1595 29.1011 53.8889 29.2928C53.6296 29.4731 53.4493 29.8001 53.3478 30.2736L50.9126 29.6986C51.0704 28.8869 51.4876 28.2386 52.164 27.7538C52.8405 27.2691 53.7931 27.0267 55.022 27.0267C56.2622 27.0267 57.2205 27.3029 57.8969 27.8553C58.5846 28.3965 58.9285 29.1913 58.9285 30.2398V33.3345C58.9285 33.7742 59.1258 33.9941 59.5204 33.9941C59.7233 33.9941 59.8868 33.9715 60.0108 33.9264L59.8417 35.5668C59.5035 35.7246 59.092 35.8036 58.6072 35.8036C58.0773 35.8036 57.6207 35.7021 57.2374 35.4992C56.854 35.285 56.5947 34.9636 56.4594 34.5352C56.2227 34.9749 55.845 35.3019 55.3264 35.5161C54.8191 35.719 54.2779 35.8205 53.7029 35.8205C52.8348 35.8205 52.1415 35.6232 51.6228 35.2286C51.1155 34.8227 50.8618 34.2421 50.8618 33.4867C50.8618 32.8779 51.0422 32.3762 51.403 31.9816C51.775 31.5758 52.3557 31.2939 53.1449 31.1361L56.0705 30.5273V30.2905ZM53.7029 33.2162C53.7029 33.4642 53.7931 33.6502 53.9735 33.7742C54.1539 33.8982 54.3681 33.9602 54.6161 33.9602C54.9994 33.9602 55.3377 33.8475 55.6308 33.622C55.9239 33.3853 56.0705 33.0189 56.0705 32.5228V32.0493L54.7007 32.3368C54.3625 32.4044 54.1088 32.5059 53.9397 32.6412C53.7818 32.7652 53.7029 32.9569 53.7029 33.2162ZM62.583 26.2149C61.9968 26.2149 61.5683 26.1078 61.2978 25.8936C61.0385 25.6681 60.9088 25.3186 60.9088 24.8451C60.9088 24.3603 61.0385 24.0108 61.2978 23.7966C61.5683 23.5711 61.9968 23.4584 62.583 23.4584C63.158 23.4584 63.5808 23.5711 63.8514 23.7966C64.1219 24.0108 64.2572 24.3603 64.2572 24.8451C64.2572 25.3186 64.1219 25.6681 63.8514 25.8936C63.5808 26.1078 63.158 26.2149 62.583 26.2149ZM64.0205 27.1958V35.6514H61.1456V27.1958H64.0205ZM66.067 35.6514V27.1958H68.6375L68.722 28.9038C68.9813 28.2837 69.359 27.8159 69.8551 27.5002C70.3512 27.1845 70.9374 27.0267 71.6139 27.0267C72.482 27.0267 73.1866 27.2803 73.7278 27.7877C74.2689 28.295 74.5395 29.0391 74.5395 30.0199V35.6514H71.6646V30.7809C71.6646 30.1947 71.5518 29.7888 71.3264 29.5633C71.1009 29.3379 70.8134 29.2251 70.4639 29.2251C70.0467 29.2251 69.686 29.3717 69.3816 29.6648C69.0884 29.9579 68.9419 30.4596 68.9419 31.1699V35.6514H66.067Z" fill="black"/>
<rect x="53.552" y="54.2031" width="2.81853" height="252.259" fill="#EFEFF1"/>
<path d="M155.717 7.19577V8.36265H152.893V15.6514H151.54V8.36265H149.849V7.19577H151.54V5.77523C151.54 5.01987 151.771 4.40543 152.233 3.93191C152.696 3.4584 153.389 3.22165 154.314 3.22165C154.607 3.22165 154.883 3.25547 155.142 3.32311C155.402 3.39076 155.604 3.48659 155.751 3.6106L155.396 4.70983C155.125 4.54072 154.804 4.45616 154.432 4.45616C153.947 4.45616 153.569 4.57454 153.299 4.8113C153.028 5.03678 152.893 5.40319 152.893 5.91052V7.19577H155.717ZM160.823 15.8205C160.022 15.8205 159.306 15.6457 158.675 15.2962C158.055 14.9467 157.57 14.445 157.221 13.7911C156.871 13.126 156.696 12.3368 156.696 11.4236C156.696 10.5104 156.871 9.72681 157.221 9.07292C157.57 8.40774 158.049 7.90041 158.658 7.55091C159.267 7.20141 159.96 7.02666 160.738 7.02666C161.527 7.02666 162.198 7.19577 162.751 7.534C163.314 7.87222 163.743 8.33446 164.036 8.92071C164.329 9.4957 164.476 10.144 164.476 10.8655C164.476 11.0572 164.47 11.2319 164.459 11.3897C164.447 11.5476 164.43 11.6885 164.408 11.8125H158.032C158.1 12.7032 158.376 13.3965 158.861 13.8926C159.346 14.3887 159.988 14.6367 160.789 14.6367C161.409 14.6367 161.911 14.5183 162.294 14.2816C162.689 14.0448 163.004 13.7235 163.241 13.3176L164.306 13.9433C163.991 14.5183 163.534 14.9749 162.937 15.3131C162.35 15.6514 161.646 15.8205 160.823 15.8205ZM160.704 8.21044C159.994 8.21044 159.408 8.42465 158.946 8.85307C158.495 9.27021 158.207 9.85647 158.083 10.6118H163.123C163.089 9.84519 162.852 9.2533 162.412 8.83616C161.973 8.41902 161.403 8.21044 160.704 8.21044ZM171.987 10.1891C171.987 9.5577 171.818 9.07292 171.479 8.73469C171.141 8.38519 170.662 8.21044 170.042 8.21044C169.456 8.21044 168.96 8.3401 168.554 8.5994C168.148 8.84743 167.849 9.2533 167.657 9.81701L166.558 9.14056C166.784 8.50921 167.201 8.00187 167.81 7.61855C168.418 7.22396 169.174 7.02666 170.076 7.02666C170.685 7.02666 171.237 7.13377 171.733 7.34797C172.229 7.55091 172.618 7.86658 172.9 8.295C173.193 8.71214 173.34 9.2533 173.34 9.91847V14.011C173.34 14.4169 173.554 14.6198 173.982 14.6198C174.196 14.6198 174.405 14.5916 174.608 14.5352L174.54 15.6006C174.315 15.7134 174.022 15.7697 173.661 15.7697C173.244 15.7697 172.883 15.6683 172.579 15.4653C172.285 15.2624 172.094 14.9524 172.004 14.5352C171.71 14.9749 171.31 15.3019 170.803 15.5161C170.296 15.719 169.794 15.8205 169.298 15.8205C168.802 15.8205 168.339 15.7359 167.911 15.5668C167.483 15.3977 167.139 15.144 166.879 14.8058C166.631 14.4563 166.507 14.0279 166.507 13.5206C166.507 12.8892 166.716 12.3706 167.133 11.9647C167.562 11.5476 168.153 11.2657 168.909 11.1192L171.987 10.5104V10.1891ZM167.894 13.4529C167.894 13.8024 168.029 14.0899 168.3 14.3154C168.582 14.5296 168.976 14.6367 169.484 14.6367C169.924 14.6367 170.329 14.5634 170.701 14.4169C171.085 14.259 171.395 14.0279 171.632 13.7235C171.868 13.4078 171.987 13.0076 171.987 12.5228V11.6265L169.535 12.1338C168.982 12.2466 168.571 12.4044 168.3 12.6074C168.029 12.8103 167.894 13.0921 167.894 13.4529ZM181.37 7.19577V8.36265H178.292V13.3176C178.292 13.7348 178.411 14.0448 178.648 14.2477C178.884 14.4507 179.189 14.5521 179.561 14.5521C179.888 14.5521 180.17 14.4958 180.406 14.383C180.643 14.2703 180.857 14.1181 181.049 13.9264L181.522 15.0595C181.263 15.2962 180.953 15.4823 180.592 15.6175C180.243 15.7528 179.837 15.8205 179.375 15.8205C178.946 15.8205 178.546 15.7472 178.174 15.6006C177.802 15.4428 177.503 15.2004 177.278 14.8735C177.064 14.5352 176.951 14.0955 176.94 13.5544V8.36265H175.248V7.19577H176.94V5.16643L178.292 4.79439V7.19577H181.37ZM186.443 15.8205C185.902 15.8205 185.389 15.719 184.904 15.5161C184.43 15.3131 184.041 14.9862 183.737 14.5352C183.444 14.073 183.297 13.4755 183.297 12.7426V7.19577H184.65V12.3875C184.65 13.2443 184.836 13.8362 185.208 14.1632C185.58 14.4789 186.104 14.6367 186.781 14.6367C187.209 14.6367 187.615 14.5409 187.999 14.3492C188.382 14.1463 188.698 13.8362 188.946 13.4191C189.194 13.0019 189.318 12.4608 189.318 11.7956V7.19577H190.67V15.6514H189.487L189.402 14.3661C189.109 14.8735 188.709 15.2455 188.201 15.4823C187.705 15.7077 187.119 15.8205 186.443 15.8205ZM193.819 15.6514V7.19577H194.918L195.104 8.58249C195.578 7.54527 196.48 7.02666 197.81 7.02666C197.957 7.02666 198.115 7.03794 198.284 7.06048C198.464 7.08303 198.616 7.12813 198.74 7.19577L198.504 8.43029C198.38 8.38519 198.244 8.35137 198.098 8.32882C197.951 8.30627 197.743 8.295 197.472 8.295C197.122 8.295 196.767 8.39647 196.407 8.5994C196.057 8.80234 195.764 9.11237 195.527 9.52952C195.29 9.93539 195.172 10.454 195.172 11.0853V15.6514H193.819ZM203.993 15.8205C203.192 15.8205 202.476 15.6457 201.845 15.2962C201.225 14.9467 200.74 14.445 200.39 13.7911C200.041 13.126 199.866 12.3368 199.866 11.4236C199.866 10.5104 200.041 9.72681 200.39 9.07292C200.74 8.40774 201.219 7.90041 201.828 7.55091C202.437 7.20141 203.13 7.02666 203.908 7.02666C204.697 7.02666 205.368 7.19577 205.92 7.534C206.484 7.87222 206.913 8.33446 207.206 8.92071C207.499 9.4957 207.645 10.144 207.645 10.8655C207.645 11.0572 207.64 11.2319 207.628 11.3897C207.617 11.5476 207.6 11.6885 207.578 11.8125H201.202C201.27 12.7032 201.546 13.3965 202.031 13.8926C202.516 14.3887 203.158 14.6367 203.959 14.6367C204.579 14.6367 205.08 14.5183 205.464 14.2816C205.858 14.0448 206.174 13.7235 206.411 13.3176L207.476 13.9433C207.161 14.5183 206.704 14.9749 206.106 15.3131C205.52 15.6514 204.816 15.8205 203.993 15.8205ZM203.874 8.21044C203.164 8.21044 202.578 8.42465 202.115 8.85307C201.664 9.27021 201.377 9.85647 201.253 10.6118H206.292C206.259 9.84519 206.022 9.2533 205.582 8.83616C205.143 8.41902 204.573 8.21044 203.874 8.21044ZM156.064 35.8205C155.422 35.8205 154.847 35.6683 154.339 35.3639C153.832 35.0595 153.449 34.6592 153.189 34.1632L153.105 35.6514H151.921V23.3062H153.274V28.5148C153.544 28.0752 153.922 27.72 154.407 27.4494C154.903 27.1676 155.461 27.0267 156.081 27.0267C156.78 27.0267 157.423 27.2014 158.009 27.5509C158.595 27.9004 159.063 28.4021 159.413 29.056C159.762 29.7099 159.937 30.4991 159.937 31.4236C159.937 32.3368 159.757 33.126 159.396 33.7911C159.046 34.445 158.578 34.9467 157.992 35.2962C157.406 35.6457 156.763 35.8205 156.064 35.8205ZM155.929 34.6367C156.763 34.6367 157.412 34.3436 157.874 33.7573C158.347 33.1711 158.584 32.3931 158.584 31.4236C158.584 30.454 158.353 29.6761 157.891 29.0898C157.428 28.5036 156.78 28.2104 155.946 28.2104C155.157 28.2104 154.514 28.5092 154.018 29.1067C153.522 29.7043 153.274 30.4878 153.274 31.4574C153.274 32.427 153.516 33.1992 154.001 33.7742C154.497 34.3492 155.14 34.6367 155.929 34.6367ZM162.524 35.6514V27.1958H163.623L163.809 28.5825C164.282 27.5453 165.184 27.0267 166.515 27.0267C166.661 27.0267 166.819 27.0379 166.988 27.0605C167.168 27.083 167.321 27.1281 167.445 27.1958L167.208 28.4303C167.084 28.3852 166.949 28.3514 166.802 28.3288C166.656 28.3063 166.447 28.295 166.176 28.295C165.827 28.295 165.472 28.3965 165.111 28.5994C164.761 28.8023 164.468 29.1124 164.232 29.5295C163.995 29.9354 163.876 30.454 163.876 31.0853V35.6514H162.524ZM174.134 30.1891C174.134 29.5577 173.964 29.0729 173.626 28.7347C173.288 28.3852 172.809 28.2104 172.189 28.2104C171.603 28.2104 171.106 28.3401 170.701 28.5994C170.295 28.8474 169.996 29.2533 169.804 29.817L168.705 29.1406C168.931 28.5092 169.348 28.0019 169.957 27.6186C170.565 27.224 171.321 27.0267 172.223 27.0267C172.831 27.0267 173.384 27.1338 173.88 27.348C174.376 27.5509 174.765 27.8666 175.047 28.295C175.34 28.7121 175.486 29.2533 175.486 29.9185V34.011C175.486 34.4169 175.701 34.6198 176.129 34.6198C176.343 34.6198 176.552 34.5916 176.755 34.5352L176.687 35.6006C176.462 35.7134 176.169 35.7697 175.808 35.7697C175.391 35.7697 175.03 35.6683 174.725 35.4653C174.432 35.2624 174.241 34.9524 174.151 34.5352C173.857 34.9749 173.457 35.3019 172.95 35.5161C172.442 35.719 171.941 35.8205 171.445 35.8205C170.949 35.8205 170.486 35.7359 170.058 35.5668C169.63 35.3977 169.286 35.144 169.026 34.8058C168.778 34.4563 168.654 34.0279 168.654 33.5206C168.654 32.8892 168.863 32.3706 169.28 31.9647C169.709 31.5476 170.3 31.2657 171.056 31.1192L174.134 30.5104V30.1891ZM170.041 33.4529C170.041 33.8024 170.176 34.0899 170.447 34.3154C170.729 34.5296 171.123 34.6367 171.631 34.6367C172.07 34.6367 172.476 34.5634 172.848 34.4169C173.232 34.259 173.542 34.0279 173.778 33.7235C174.015 33.4078 174.134 33.0076 174.134 32.5228V31.6265L171.681 32.1338C171.129 32.2466 170.718 32.4044 170.447 32.6074C170.176 32.8103 170.041 33.0921 170.041 33.4529ZM178.774 35.6514V27.1958H179.958L180.042 28.5148C180.336 27.985 180.736 27.6073 181.243 27.3818C181.751 27.145 182.297 27.0267 182.884 27.0267C183.492 27.0267 184.045 27.145 184.541 27.3818C185.037 27.6073 185.432 27.9568 185.725 28.4303C186.029 28.9038 186.181 29.507 186.181 30.2398V35.6514H184.828V30.7133C184.828 29.7775 184.625 29.1293 184.22 28.7685C183.825 28.3965 183.335 28.2104 182.748 28.2104C182.342 28.2104 181.937 28.3063 181.531 28.4979C181.125 28.6896 180.787 28.9996 180.516 29.4281C180.257 29.8565 180.127 30.4314 180.127 31.153V35.6514H178.774ZM192.745 27.0267C193.613 27.0267 194.335 27.2296 194.91 27.6355C195.485 28.0301 195.93 28.5769 196.246 29.2758L194.961 29.8847C194.78 29.3435 194.504 28.932 194.132 28.6501C193.771 28.357 193.298 28.2104 192.711 28.2104C191.866 28.2104 191.201 28.4979 190.716 29.0729C190.242 29.6366 190.006 30.4202 190.006 31.4236C190.006 32.427 190.242 33.2162 190.716 33.7911C191.201 34.3548 191.866 34.6367 192.711 34.6367C193.377 34.6367 193.906 34.4845 194.301 34.1801C194.696 33.8757 194.955 33.4473 195.079 32.8948L196.33 33.3345C196.048 34.1124 195.603 34.7213 194.994 35.1609C194.397 35.6006 193.647 35.8205 192.745 35.8205C191.956 35.8205 191.251 35.6457 190.631 35.2962C190.011 34.9467 189.526 34.445 189.177 33.7911C188.827 33.126 188.653 32.3368 188.653 31.4236C188.653 30.5104 188.827 29.7268 189.177 29.0729C189.526 28.4077 190.011 27.9004 190.631 27.5509C191.251 27.2014 191.956 27.0267 192.745 27.0267ZM198.708 35.6514V23.3062H200.06V28.4641C200.354 27.9568 200.743 27.5904 201.227 27.3649C201.712 27.1394 202.242 27.0267 202.817 27.0267C203.426 27.0267 203.978 27.145 204.474 27.3818C204.97 27.6073 205.365 27.9568 205.658 28.4303C205.962 28.9038 206.115 29.507 206.115 30.2398V35.6514H204.762V30.7133C204.762 29.7775 204.559 29.1293 204.153 28.7685C203.758 28.3965 203.268 28.2104 202.682 28.2104C202.276 28.2104 201.87 28.3063 201.464 28.4979C201.058 28.6896 200.72 29.0053 200.449 29.445C200.19 29.8734 200.06 30.4484 200.06 31.1699V35.6514H198.708Z" fill="black"/>
<rect x="177.567" y="54.2031" width="2.81853" height="252.259" fill="#EFEFF1"/>
<path d="M279.733 7.19577V8.36265H276.908V15.6514H275.556V8.36265H273.864V7.19577H275.556V5.77523C275.556 5.01987 275.787 4.40543 276.249 3.93191C276.711 3.4584 277.404 3.22165 278.329 3.22165C278.622 3.22165 278.898 3.25547 279.158 3.32311C279.417 3.39076 279.62 3.48659 279.766 3.6106L279.411 4.70983C279.141 4.54072 278.819 4.45616 278.447 4.45616C277.963 4.45616 277.585 4.57454 277.314 4.8113C277.044 5.03678 276.908 5.40319 276.908 5.91052V7.19577H279.733ZM284.838 15.8205C284.038 15.8205 283.322 15.6457 282.69 15.2962C282.07 14.9467 281.586 14.445 281.236 13.7911C280.887 13.126 280.712 12.3368 280.712 11.4236C280.712 10.5104 280.887 9.72681 281.236 9.07292C281.586 8.40774 282.065 7.90041 282.674 7.55091C283.282 7.20141 283.976 7.02666 284.754 7.02666C285.543 7.02666 286.214 7.19577 286.766 7.534C287.33 7.87222 287.758 8.33446 288.051 8.92071C288.344 9.4957 288.491 10.144 288.491 10.8655C288.491 11.0572 288.485 11.2319 288.474 11.3897C288.463 11.5476 288.446 11.6885 288.423 11.8125H282.048C282.115 12.7032 282.392 13.3965 282.876 13.8926C283.361 14.3887 284.004 14.6367 284.804 14.6367C285.424 14.6367 285.926 14.5183 286.309 14.2816C286.704 14.0448 287.02 13.7235 287.256 13.3176L288.322 13.9433C288.006 14.5183 287.55 14.9749 286.952 15.3131C286.366 15.6514 285.661 15.8205 284.838 15.8205ZM284.72 8.21044C284.01 8.21044 283.423 8.42465 282.961 8.85307C282.51 9.27021 282.223 9.85647 282.099 10.6118H287.138C287.104 9.84519 286.868 9.2533 286.428 8.83616C285.988 8.41902 285.419 8.21044 284.72 8.21044ZM296.002 10.1891C296.002 9.5577 295.833 9.07292 295.495 8.73469C295.156 8.38519 294.677 8.21044 294.057 8.21044C293.471 8.21044 292.975 8.3401 292.569 8.5994C292.163 8.84743 291.864 9.2533 291.673 9.81701L290.574 9.14056C290.799 8.50921 291.216 8.00187 291.825 7.61855C292.434 7.22396 293.189 7.02666 294.091 7.02666C294.7 7.02666 295.252 7.13377 295.748 7.34797C296.244 7.55091 296.633 7.86658 296.915 8.295C297.208 8.71214 297.355 9.2533 297.355 9.91847V14.011C297.355 14.4169 297.569 14.6198 297.998 14.6198C298.212 14.6198 298.42 14.5916 298.623 14.5352L298.556 15.6006C298.33 15.7134 298.037 15.7697 297.676 15.7697C297.259 15.7697 296.898 15.6683 296.594 15.4653C296.301 15.2624 296.109 14.9524 296.019 14.5352C295.726 14.9749 295.326 15.3019 294.818 15.5161C294.311 15.719 293.809 15.8205 293.313 15.8205C292.817 15.8205 292.355 15.7359 291.926 15.5668C291.498 15.3977 291.154 15.144 290.895 14.8058C290.647 14.4563 290.523 14.0279 290.523 13.5206C290.523 12.8892 290.731 12.3706 291.149 11.9647C291.577 11.5476 292.169 11.2657 292.924 11.1192L296.002 10.5104V10.1891ZM291.91 13.4529C291.91 13.8024 292.045 14.0899 292.315 14.3154C292.597 14.5296 292.992 14.6367 293.499 14.6367C293.939 14.6367 294.345 14.5634 294.717 14.4169C295.1 14.259 295.41 14.0279 295.647 13.7235C295.884 13.4078 296.002 13.0076 296.002 12.5228V11.6265L293.55 12.1338C292.997 12.2466 292.586 12.4044 292.315 12.6074C292.045 12.8103 291.91 13.0921 291.91 13.4529ZM305.386 7.19577V8.36265H302.308V13.3176C302.308 13.7348 302.426 14.0448 302.663 14.2477C302.9 14.4507 303.204 14.5521 303.576 14.5521C303.903 14.5521 304.185 14.4958 304.422 14.383C304.658 14.2703 304.873 14.1181 305.064 13.9264L305.538 15.0595C305.279 15.2962 304.969 15.4823 304.608 15.6175C304.258 15.7528 303.852 15.8205 303.39 15.8205C302.962 15.8205 302.561 15.7472 302.189 15.6006C301.817 15.4428 301.519 15.2004 301.293 14.8735C301.079 14.5352 300.966 14.0955 300.955 13.5544V8.36265H299.264V7.19577H300.955V5.16643L302.308 4.79439V7.19577H305.386ZM310.458 15.8205C309.917 15.8205 309.404 15.719 308.919 15.5161C308.446 15.3131 308.057 14.9862 307.752 14.5352C307.459 14.073 307.313 13.4755 307.313 12.7426V7.19577H308.665V12.3875C308.665 13.2443 308.852 13.8362 309.224 14.1632C309.596 14.4789 310.12 14.6367 310.796 14.6367C311.225 14.6367 311.631 14.5409 312.014 14.3492C312.397 14.1463 312.713 13.8362 312.961 13.4191C313.209 13.0019 313.333 12.4608 313.333 11.7956V7.19577H314.686V15.6514H313.502L313.418 14.3661C313.124 14.8735 312.724 15.2455 312.217 15.4823C311.721 15.7077 311.135 15.8205 310.458 15.8205ZM317.835 15.6514V7.19577H318.934L319.12 8.58249C319.593 7.54527 320.495 7.02666 321.826 7.02666C321.972 7.02666 322.13 7.03794 322.299 7.06048C322.479 7.08303 322.632 7.12813 322.756 7.19577L322.519 8.43029C322.395 8.38519 322.26 8.35137 322.113 8.32882C321.966 8.30627 321.758 8.295 321.487 8.295C321.138 8.295 320.783 8.39647 320.422 8.5994C320.072 8.80234 319.779 9.11237 319.543 9.52952C319.306 9.93539 319.187 10.454 319.187 11.0853V15.6514H317.835ZM328.008 15.8205C327.207 15.8205 326.492 15.6457 325.86 15.2962C325.24 14.9467 324.755 14.445 324.406 13.7911C324.056 13.126 323.882 12.3368 323.882 11.4236C323.882 10.5104 324.056 9.72681 324.406 9.07292C324.755 8.40774 325.234 7.90041 325.843 7.55091C326.452 7.20141 327.145 7.02666 327.923 7.02666C328.713 7.02666 329.383 7.19577 329.936 7.534C330.5 7.87222 330.928 8.33446 331.221 8.92071C331.514 9.4957 331.661 10.144 331.661 10.8655C331.661 11.0572 331.655 11.2319 331.644 11.3897C331.633 11.5476 331.616 11.6885 331.593 11.8125H325.218C325.285 12.7032 325.561 13.3965 326.046 13.8926C326.531 14.3887 327.174 14.6367 327.974 14.6367C328.594 14.6367 329.096 14.5183 329.479 14.2816C329.874 14.0448 330.189 13.7235 330.426 13.3176L331.492 13.9433C331.176 14.5183 330.719 14.9749 330.122 15.3131C329.536 15.6514 328.831 15.8205 328.008 15.8205ZM327.89 8.21044C327.179 8.21044 326.593 8.42465 326.131 8.85307C325.68 9.27021 325.392 9.85647 325.268 10.6118H330.308C330.274 9.84519 330.037 9.2533 329.598 8.83616C329.158 8.41902 328.589 8.21044 327.89 8.21044ZM280.08 35.8205C279.437 35.8205 278.862 35.6683 278.355 35.3639C277.847 35.0595 277.464 34.6592 277.205 34.1632L277.12 35.6514H275.936V23.3062H277.289V28.5148C277.56 28.0752 277.938 27.72 278.422 27.4494C278.918 27.1676 279.476 27.0267 280.097 27.0267C280.796 27.0267 281.438 27.2014 282.024 27.5509C282.611 27.9004 283.079 28.4021 283.428 29.056C283.778 29.7099 283.952 30.4991 283.952 31.4236C283.952 32.3368 283.772 33.126 283.411 33.7911C283.062 34.445 282.594 34.9467 282.008 35.2962C281.421 35.6457 280.779 35.8205 280.08 35.8205ZM279.944 34.6367C280.779 34.6367 281.427 34.3436 281.889 33.7573C282.363 33.1711 282.599 32.3931 282.599 31.4236C282.599 30.454 282.368 29.6761 281.906 29.0898C281.444 28.5036 280.796 28.2104 279.961 28.2104C279.172 28.2104 278.529 28.5092 278.033 29.1067C277.537 29.7043 277.289 30.4878 277.289 31.4574C277.289 32.427 277.532 33.1992 278.016 33.7742C278.513 34.3492 279.155 34.6367 279.944 34.6367ZM286.539 35.6514V27.1958H287.638L287.824 28.5825C288.298 27.5453 289.2 27.0267 290.53 27.0267C290.677 27.0267 290.834 27.0379 291.003 27.0605C291.184 27.083 291.336 27.1281 291.46 27.1958L291.223 28.4303C291.099 28.3852 290.964 28.3514 290.817 28.3288C290.671 28.3063 290.462 28.295 290.192 28.295C289.842 28.295 289.487 28.3965 289.126 28.5994C288.777 28.8023 288.484 29.1124 288.247 29.5295C288.01 29.9354 287.892 30.454 287.892 31.0853V35.6514H286.539ZM298.149 30.1891C298.149 29.5577 297.98 29.0729 297.642 28.7347C297.303 28.3852 296.824 28.2104 296.204 28.2104C295.618 28.2104 295.122 28.3401 294.716 28.5994C294.31 28.8474 294.011 29.2533 293.82 29.817L292.72 29.1406C292.946 28.5092 293.363 28.0019 293.972 27.6186C294.581 27.224 295.336 27.0267 296.238 27.0267C296.847 27.0267 297.399 27.1338 297.895 27.348C298.391 27.5509 298.78 27.8666 299.062 28.295C299.355 28.7121 299.502 29.2533 299.502 29.9185V34.011C299.502 34.4169 299.716 34.6198 300.145 34.6198C300.359 34.6198 300.567 34.5916 300.77 34.5352L300.703 35.6006C300.477 35.7134 300.184 35.7697 299.823 35.7697C299.406 35.7697 299.045 35.6683 298.741 35.4653C298.448 35.2624 298.256 34.9524 298.166 34.5352C297.873 34.9749 297.473 35.3019 296.965 35.5161C296.458 35.719 295.956 35.8205 295.46 35.8205C294.964 35.8205 294.502 35.7359 294.073 35.5668C293.645 35.3977 293.301 35.144 293.042 34.8058C292.794 34.4563 292.67 34.0279 292.67 33.5206C292.67 32.8892 292.878 32.3706 293.295 31.9647C293.724 31.5476 294.316 31.2657 295.071 31.1192L298.149 30.5104V30.1891ZM294.056 33.4529C294.056 33.8024 294.192 34.0899 294.462 34.3154C294.744 34.5296 295.139 34.6367 295.646 34.6367C296.086 34.6367 296.492 34.5634 296.864 34.4169C297.247 34.259 297.557 34.0279 297.794 33.7235C298.031 33.4078 298.149 33.0076 298.149 32.5228V31.6265L295.697 32.1338C295.144 32.2466 294.733 32.4044 294.462 32.6074C294.192 32.8103 294.056 33.0921 294.056 33.4529ZM302.79 35.6514V27.1958H303.973L304.058 28.5148C304.351 27.985 304.751 27.6073 305.259 27.3818C305.766 27.145 306.313 27.0267 306.899 27.0267C307.508 27.0267 308.06 27.145 308.556 27.3818C309.052 27.6073 309.447 27.9568 309.74 28.4303C310.044 28.9038 310.197 29.507 310.197 30.2398V35.6514H308.844V30.7133C308.844 29.7775 308.641 29.1293 308.235 28.7685C307.84 28.3965 307.35 28.2104 306.764 28.2104C306.358 28.2104 305.952 28.3063 305.546 28.4979C305.14 28.6896 304.802 28.9996 304.531 29.4281C304.272 29.8565 304.142 30.4314 304.142 31.153V35.6514H302.79ZM316.761 27.0267C317.629 27.0267 318.35 27.2296 318.925 27.6355C319.5 28.0301 319.945 28.5769 320.261 29.2758L318.976 29.8847C318.796 29.3435 318.519 28.932 318.147 28.6501C317.786 28.357 317.313 28.2104 316.727 28.2104C315.881 28.2104 315.216 28.4979 314.731 29.0729C314.258 29.6366 314.021 30.4202 314.021 31.4236C314.021 32.427 314.258 33.2162 314.731 33.7911C315.216 34.3548 315.881 34.6367 316.727 34.6367C317.392 34.6367 317.922 34.4845 318.316 34.1801C318.711 33.8757 318.97 33.4473 319.094 32.8948L320.346 33.3345C320.064 34.1124 319.619 34.7213 319.01 35.1609C318.412 35.6006 317.662 35.8205 316.761 35.8205C315.971 35.8205 315.267 35.6457 314.647 35.2962C314.027 34.9467 313.542 34.445 313.192 33.7911C312.843 33.126 312.668 32.3368 312.668 31.4236C312.668 30.5104 312.843 29.7268 313.192 29.0729C313.542 28.4077 314.027 27.9004 314.647 27.5509C315.267 27.2014 315.971 27.0267 316.761 27.0267ZM322.723 35.6514V23.3062H324.076V28.4641C324.369 27.9568 324.758 27.5904 325.243 27.3649C325.727 27.1394 326.257 27.0267 326.832 27.0267C327.441 27.0267 327.994 27.145 328.49 27.3818C328.986 27.6073 329.38 27.9568 329.673 28.4303C329.978 28.9038 330.13 29.507 330.13 30.2398V35.6514H328.777V30.7133C328.777 29.7775 328.574 29.1293 328.168 28.7685C327.774 28.3965 327.283 28.2104 326.697 28.2104C326.291 28.2104 325.885 28.3063 325.479 28.4979C325.074 28.6896 324.735 29.0053 324.465 29.445C324.205 29.8734 324.076 30.4484 324.076 31.1699V35.6514H322.723Z" fill="black"/>
<rect x="301.583" y="54.2031" width="2.81853" height="252.259" fill="#EFEFF1"/>
<path d="M150.106 195.153C150.684 195.153 151.165 195.288 151.549 195.558C151.932 195.821 152.229 196.186 152.439 196.652L151.583 197.058C151.462 196.697 151.278 196.423 151.03 196.235C150.79 196.039 150.474 195.942 150.083 195.942C149.519 195.942 149.076 196.133 148.753 196.517C148.437 196.893 148.279 197.415 148.279 198.084C148.279 198.753 148.437 199.279 148.753 199.662C149.076 200.038 149.519 200.226 150.083 200.226C150.527 200.226 150.88 200.124 151.143 199.921C151.406 199.719 151.579 199.433 151.661 199.065L152.496 199.358C152.308 199.876 152.011 200.282 151.605 200.575C151.207 200.869 150.707 201.015 150.106 201.015C149.579 201.015 149.11 200.899 148.696 200.666C148.283 200.433 147.96 200.098 147.727 199.662C147.494 199.219 147.377 198.693 147.377 198.084C147.377 197.475 147.494 196.953 147.727 196.517C147.96 196.073 148.283 195.735 148.696 195.502C149.11 195.269 149.579 195.153 150.106 195.153ZM156.414 195.153C156.948 195.153 157.418 195.269 157.824 195.502C158.237 195.735 158.56 196.073 158.793 196.517C159.026 196.953 159.143 197.475 159.143 198.084C159.143 198.693 159.026 199.219 158.793 199.662C158.56 200.098 158.237 200.433 157.824 200.666C157.418 200.899 156.948 201.015 156.414 201.015C155.888 201.015 155.418 200.899 155.005 200.666C154.592 200.433 154.268 200.098 154.035 199.662C153.802 199.219 153.686 198.693 153.686 198.084C153.686 197.475 153.802 196.953 154.035 196.517C154.268 196.073 154.592 195.735 155.005 195.502C155.418 195.269 155.888 195.153 156.414 195.153ZM156.414 195.93C155.843 195.93 155.396 196.122 155.073 196.505C154.749 196.889 154.588 197.415 154.588 198.084C154.588 198.753 154.749 199.279 155.073 199.662C155.396 200.046 155.843 200.237 156.414 200.237C156.985 200.237 157.433 200.046 157.756 199.662C158.079 199.279 158.241 198.753 158.241 198.084C158.241 197.415 158.079 196.889 157.756 196.505C157.433 196.122 156.985 195.93 156.414 195.93ZM163.039 201.015C162.573 201.015 162.145 200.899 161.754 200.666C161.363 200.433 161.051 200.098 160.818 199.662C160.585 199.219 160.469 198.693 160.469 198.084C160.469 197.46 160.593 196.93 160.841 196.494C161.089 196.058 161.416 195.728 161.821 195.502C162.227 195.269 162.663 195.153 163.129 195.153C163.535 195.153 163.896 195.246 164.212 195.434C164.527 195.615 164.76 195.863 164.911 196.178V192.672H165.812V200.902H165.023L164.967 199.843C164.809 200.226 164.554 200.519 164.2 200.722C163.847 200.917 163.46 201.015 163.039 201.015ZM163.129 200.226C163.663 200.226 164.091 200.027 164.414 199.628C164.745 199.23 164.911 198.689 164.911 198.005C164.911 197.359 164.749 196.855 164.426 196.494C164.103 196.126 163.685 195.942 163.174 195.942C162.603 195.942 162.16 196.137 161.844 196.528C161.528 196.919 161.37 197.437 161.37 198.084C161.37 198.73 161.525 199.249 161.833 199.64C162.141 200.03 162.573 200.226 163.129 200.226ZM170.265 201.015C169.732 201.015 169.254 200.899 168.833 200.666C168.42 200.433 168.097 200.098 167.864 199.662C167.631 199.219 167.514 198.693 167.514 198.084C167.514 197.475 167.631 196.953 167.864 196.517C168.097 196.073 168.416 195.735 168.822 195.502C169.228 195.269 169.69 195.153 170.209 195.153C170.735 195.153 171.182 195.265 171.55 195.491C171.926 195.716 172.212 196.024 172.407 196.415C172.603 196.799 172.7 197.231 172.7 197.712C172.7 197.84 172.697 197.956 172.689 198.061C172.682 198.166 172.67 198.26 172.655 198.343H168.405C168.45 198.937 168.634 199.399 168.957 199.73C169.281 200.061 169.709 200.226 170.243 200.226C170.656 200.226 170.991 200.147 171.246 199.989C171.509 199.831 171.72 199.617 171.877 199.347L172.588 199.764C172.377 200.147 172.073 200.451 171.675 200.677C171.284 200.902 170.814 201.015 170.265 201.015ZM170.186 195.942C169.713 195.942 169.322 196.085 169.014 196.37C168.713 196.648 168.522 197.039 168.439 197.543H171.799C171.776 197.032 171.618 196.637 171.325 196.359C171.032 196.081 170.652 195.942 170.186 195.942ZM178.258 200.902V195.265H178.991L179.115 196.19C179.431 195.498 180.032 195.153 180.919 195.153C181.017 195.153 181.122 195.16 181.235 195.175C181.355 195.19 181.456 195.22 181.539 195.265L181.381 196.088C181.298 196.058 181.208 196.036 181.111 196.021C181.013 196.006 180.874 195.998 180.693 195.998C180.46 195.998 180.224 196.066 179.983 196.201C179.75 196.336 179.555 196.543 179.397 196.821C179.239 197.092 179.16 197.437 179.16 197.858V200.902H178.258ZM185.041 201.015C184.507 201.015 184.03 200.899 183.609 200.666C183.195 200.433 182.872 200.098 182.639 199.662C182.406 199.219 182.29 198.693 182.29 198.084C182.29 197.475 182.406 196.953 182.639 196.517C182.872 196.073 183.192 195.735 183.597 195.502C184.003 195.269 184.466 195.153 184.984 195.153C185.51 195.153 185.957 195.265 186.326 195.491C186.702 195.716 186.987 196.024 187.183 196.415C187.378 196.799 187.476 197.231 187.476 197.712C187.476 197.84 187.472 197.956 187.464 198.061C187.457 198.166 187.446 198.26 187.431 198.343H183.18C183.225 198.937 183.41 199.399 183.733 199.73C184.056 200.061 184.484 200.226 185.018 200.226C185.431 200.226 185.766 200.147 186.021 199.989C186.284 199.831 186.495 199.617 186.653 199.347L187.363 199.764C187.153 200.147 186.848 200.451 186.45 200.677C186.059 200.902 185.589 201.015 185.041 201.015ZM184.962 195.942C184.488 195.942 184.097 196.085 183.789 196.37C183.488 196.648 183.297 197.039 183.214 197.543H186.574C186.551 197.032 186.393 196.637 186.1 196.359C185.807 196.081 185.428 195.942 184.962 195.942ZM192.769 195.265H193.716L191.371 200.902H190.469L188.124 195.265H189.15L190.931 199.989L192.769 195.265ZM195.345 194.183C195.142 194.183 194.977 194.123 194.849 194.003C194.729 193.875 194.669 193.709 194.669 193.507C194.669 193.304 194.729 193.142 194.849 193.022C194.977 192.894 195.142 192.83 195.345 192.83C195.548 192.83 195.71 192.894 195.83 193.022C195.958 193.142 196.022 193.304 196.022 193.507C196.022 193.709 195.958 193.875 195.83 194.003C195.71 194.123 195.548 194.183 195.345 194.183ZM195.796 195.265V200.902H194.894V195.265H195.796ZM200.245 201.015C199.712 201.015 199.234 200.899 198.813 200.666C198.4 200.433 198.077 200.098 197.844 199.662C197.611 199.219 197.494 198.693 197.494 198.084C197.494 197.475 197.611 196.953 197.844 196.517C198.077 196.073 198.396 195.735 198.802 195.502C199.208 195.269 199.67 195.153 200.189 195.153C200.715 195.153 201.162 195.265 201.53 195.491C201.906 195.716 202.192 196.024 202.387 196.415C202.583 196.799 202.68 197.231 202.68 197.712C202.68 197.84 202.677 197.956 202.669 198.061C202.662 198.166 202.65 198.26 202.635 198.343H198.385C198.43 198.937 198.614 199.399 198.937 199.73C199.261 200.061 199.689 200.226 200.223 200.226C200.636 200.226 200.97 200.147 201.226 199.989C201.489 199.831 201.7 199.617 201.857 199.347L202.568 199.764C202.357 200.147 202.053 200.451 201.654 200.677C201.264 200.902 200.794 201.015 200.245 201.015ZM200.166 195.942C199.693 195.942 199.302 196.085 198.994 196.37C198.693 196.648 198.501 197.039 198.419 197.543H201.778C201.756 197.032 201.598 196.637 201.305 196.359C201.012 196.081 200.632 195.942 200.166 195.942ZM211.332 195.265H212.336L210.374 200.902H209.472L207.883 196.415L206.383 200.902H205.481L203.519 195.265H204.523L205.943 199.854L207.477 195.265H208.379L209.912 199.854L211.332 195.265ZM182.424 205.911V206.757H180.113V209.136H179.267V206.757H176.945V205.911H179.267V203.544H180.113V205.911H182.424ZM150.24 218.015C149.774 218.015 149.346 217.899 148.955 217.666C148.564 217.433 148.252 217.098 148.019 216.662C147.786 216.219 147.67 215.693 147.67 215.084C147.67 214.46 147.794 213.93 148.042 213.494C148.29 213.058 148.617 212.728 149.022 212.502C149.428 212.269 149.864 212.153 150.33 212.153C150.736 212.153 151.097 212.246 151.413 212.434C151.728 212.615 151.961 212.863 152.112 213.178V209.672H153.013V217.902H152.224L152.168 216.843C152.01 217.226 151.755 217.519 151.401 217.722C151.048 217.917 150.661 218.015 150.24 218.015ZM150.33 217.226C150.864 217.226 151.292 217.027 151.615 216.628C151.946 216.23 152.112 215.689 152.112 215.005C152.112 214.359 151.95 213.855 151.627 213.494C151.304 213.126 150.886 212.942 150.375 212.942C149.804 212.942 149.361 213.137 149.045 213.528C148.729 213.919 148.571 214.437 148.571 215.084C148.571 215.73 148.726 216.249 149.034 216.64C149.342 217.03 149.774 217.226 150.33 217.226ZM157.466 218.015C156.933 218.015 156.455 217.899 156.034 217.666C155.621 217.433 155.298 217.098 155.065 216.662C154.832 216.219 154.715 215.693 154.715 215.084C154.715 214.475 154.832 213.953 155.065 213.517C155.298 213.073 155.617 212.735 156.023 212.502C156.429 212.269 156.891 212.153 157.41 212.153C157.936 212.153 158.383 212.265 158.751 212.491C159.127 212.716 159.413 213.024 159.608 213.415C159.804 213.799 159.901 214.231 159.901 214.712C159.901 214.84 159.898 214.956 159.89 215.061C159.883 215.166 159.871 215.26 159.856 215.343H155.606C155.651 215.937 155.835 216.399 156.158 216.73C156.482 217.061 156.91 217.226 157.444 217.226C157.857 217.226 158.192 217.147 158.447 216.989C158.71 216.831 158.921 216.617 159.078 216.347L159.789 216.764C159.578 217.147 159.274 217.451 158.876 217.677C158.485 217.902 158.015 218.015 157.466 218.015ZM157.387 212.942C156.914 212.942 156.523 213.085 156.215 213.37C155.914 213.648 155.723 214.039 155.64 214.543H159C158.977 214.032 158.819 213.637 158.526 213.359C158.233 213.081 157.853 212.942 157.387 212.942ZM161.617 220.27V212.265H162.406L162.462 213.257C162.635 212.927 162.891 212.66 163.229 212.457C163.575 212.254 163.969 212.153 164.413 212.153C164.871 212.153 165.292 212.269 165.675 212.502C166.066 212.735 166.378 213.07 166.611 213.505C166.844 213.941 166.961 214.467 166.961 215.084C166.961 215.693 166.84 216.219 166.6 216.662C166.367 217.098 166.055 217.433 165.664 217.666C165.273 217.899 164.845 218.015 164.379 218.015C163.958 218.015 163.586 217.925 163.263 217.745C162.94 217.557 162.692 217.316 162.519 217.023V220.27H161.617ZM164.289 217.226C164.845 217.226 165.277 217.03 165.585 216.64C165.901 216.249 166.059 215.73 166.059 215.084C166.059 214.437 165.905 213.919 165.597 213.528C165.296 213.137 164.871 212.942 164.323 212.942C163.781 212.942 163.345 213.137 163.015 213.528C162.684 213.919 162.519 214.437 162.519 215.084C162.519 215.73 162.68 216.249 163.004 216.64C163.327 217.03 163.755 217.226 164.289 217.226ZM169.542 209.672V216.471C169.542 216.756 169.595 216.955 169.7 217.068C169.805 217.173 169.974 217.226 170.207 217.226C170.357 217.226 170.481 217.215 170.579 217.192C170.677 217.17 170.808 217.128 170.974 217.068L170.827 217.857C170.579 217.962 170.301 218.015 169.993 218.015C169.091 218.015 168.64 217.512 168.64 216.504V209.672H169.542ZM174.465 212.153C174.999 212.153 175.468 212.269 175.874 212.502C176.288 212.735 176.611 213.073 176.844 213.517C177.077 213.953 177.193 214.475 177.193 215.084C177.193 215.693 177.077 216.219 176.844 216.662C176.611 217.098 176.288 217.433 175.874 217.666C175.468 217.899 174.999 218.015 174.465 218.015C173.939 218.015 173.469 217.899 173.056 217.666C172.642 217.433 172.319 217.098 172.086 216.662C171.853 216.219 171.737 215.693 171.737 215.084C171.737 214.475 171.853 213.953 172.086 213.517C172.319 213.073 172.642 212.735 173.056 212.502C173.469 212.269 173.939 212.153 174.465 212.153ZM174.465 212.93C173.894 212.93 173.447 213.122 173.123 213.505C172.8 213.889 172.639 214.415 172.639 215.084C172.639 215.753 172.8 216.279 173.123 216.662C173.447 217.046 173.894 217.237 174.465 217.237C175.036 217.237 175.483 217.046 175.807 216.662C176.13 216.279 176.291 215.753 176.291 215.084C176.291 214.415 176.13 213.889 175.807 213.505C175.483 213.122 175.036 212.93 174.465 212.93ZM183.36 212.265L180.71 218.849C180.492 219.398 180.244 219.781 179.966 219.999C179.696 220.217 179.361 220.326 178.963 220.326C178.707 220.326 178.471 220.289 178.253 220.214C178.042 220.146 177.854 220.052 177.689 219.932L177.937 219.142C178.087 219.278 178.245 219.375 178.41 219.436C178.583 219.503 178.752 219.537 178.918 219.537C179.113 219.537 179.297 219.477 179.47 219.357C179.643 219.236 179.801 218.992 179.944 218.624L180.237 217.891L179.673 216.549L177.881 212.265H178.907L180.316 215.941L180.665 216.944L181.071 215.828L182.39 212.265H183.36ZM184.539 217.902V212.265H185.329L185.385 213.145C185.588 212.799 185.851 212.547 186.174 212.389C186.505 212.231 186.843 212.153 187.189 212.153C187.587 212.153 187.963 212.243 188.316 212.423C188.669 212.604 188.94 212.882 189.128 213.257C189.248 213.002 189.417 212.795 189.635 212.637C189.853 212.472 190.09 212.352 190.346 212.277C190.609 212.194 190.857 212.153 191.09 212.153C191.45 212.153 191.792 212.228 192.116 212.378C192.446 212.528 192.717 212.761 192.927 213.077C193.138 213.393 193.243 213.799 193.243 214.295V217.902H192.341V214.385C192.341 213.874 192.213 213.505 191.958 213.28C191.702 213.054 191.387 212.942 191.011 212.942C190.718 212.942 190.443 213.013 190.188 213.156C189.932 213.299 189.725 213.509 189.568 213.787C189.417 214.065 189.342 214.407 189.342 214.813V217.902H188.44V214.385C188.44 213.874 188.312 213.505 188.057 213.28C187.801 213.054 187.486 212.942 187.11 212.942C186.862 212.942 186.606 213.009 186.343 213.145C186.088 213.272 185.873 213.479 185.701 213.765C185.528 214.05 185.441 214.426 185.441 214.892V217.902H184.539ZM197.641 218.015C197.108 218.015 196.63 217.899 196.21 217.666C195.796 217.433 195.473 217.098 195.24 216.662C195.007 216.219 194.89 215.693 194.89 215.084C194.89 214.475 195.007 213.953 195.24 213.517C195.473 213.073 195.792 212.735 196.198 212.502C196.604 212.269 197.066 212.153 197.585 212.153C198.111 212.153 198.558 212.265 198.927 212.491C199.302 212.716 199.588 213.024 199.783 213.415C199.979 213.799 200.077 214.231 200.077 214.712C200.077 214.84 200.073 214.956 200.065 215.061C200.058 215.166 200.046 215.26 200.031 215.343H195.781C195.826 215.937 196.01 216.399 196.334 216.73C196.657 217.061 197.085 217.226 197.619 217.226C198.032 217.226 198.367 217.147 198.622 216.989C198.885 216.831 199.096 216.617 199.254 216.347L199.964 216.764C199.753 217.147 199.449 217.451 199.051 217.677C198.66 217.902 198.19 218.015 197.641 218.015ZM197.562 212.942C197.089 212.942 196.698 213.085 196.39 213.37C196.089 213.648 195.898 214.039 195.815 214.543H199.175C199.152 214.032 198.994 213.637 198.701 213.359C198.408 213.081 198.028 212.942 197.562 212.942ZM201.792 217.902V212.265H202.581L202.637 213.145C202.833 212.791 203.1 212.54 203.438 212.389C203.776 212.231 204.141 212.153 204.531 212.153C204.937 212.153 205.306 212.231 205.636 212.389C205.967 212.54 206.23 212.773 206.426 213.088C206.628 213.404 206.73 213.806 206.73 214.295V217.902H205.828V214.61C205.828 213.986 205.693 213.554 205.422 213.314C205.159 213.066 204.832 212.942 204.441 212.942C204.171 212.942 203.9 213.006 203.63 213.133C203.359 213.261 203.133 213.468 202.953 213.753C202.78 214.039 202.694 214.422 202.694 214.903V217.902H201.792ZM212.077 212.265V213.043H210.025V216.347C210.025 216.625 210.104 216.831 210.262 216.967C210.42 217.102 210.623 217.17 210.871 217.17C211.089 217.17 211.277 217.132 211.435 217.057C211.593 216.982 211.735 216.88 211.863 216.752L212.179 217.508C212.006 217.666 211.799 217.79 211.559 217.88C211.326 217.97 211.055 218.015 210.747 218.015C210.461 218.015 210.195 217.966 209.946 217.869C209.698 217.763 209.499 217.602 209.349 217.384C209.206 217.158 209.131 216.865 209.123 216.504V213.043H207.996V212.265H209.123V210.912L210.025 210.664V212.265H212.077Z" fill="black"/>
<path d="M274.121 250.114C274.7 250.114 275.181 250.25 275.564 250.52C275.947 250.783 276.244 251.148 276.455 251.614L275.598 252.02C275.478 251.659 275.293 251.385 275.045 251.197C274.805 251.001 274.489 250.904 274.098 250.904C273.535 250.904 273.091 251.095 272.768 251.479C272.452 251.854 272.295 252.377 272.295 253.046C272.295 253.715 272.452 254.241 272.768 254.624C273.091 255 273.535 255.188 274.098 255.188C274.542 255.188 274.895 255.086 275.158 254.883C275.421 254.68 275.594 254.395 275.677 254.027L276.511 254.32C276.323 254.838 276.026 255.244 275.62 255.537C275.222 255.83 274.722 255.977 274.121 255.977C273.595 255.977 273.125 255.86 272.712 255.628C272.298 255.395 271.975 255.06 271.742 254.624C271.509 254.181 271.393 253.655 271.393 253.046C271.393 252.437 271.509 251.915 271.742 251.479C271.975 251.035 272.298 250.697 272.712 250.464C273.125 250.231 273.595 250.114 274.121 250.114ZM280.43 250.114C280.963 250.114 281.433 250.231 281.839 250.464C282.252 250.697 282.575 251.035 282.808 251.479C283.041 251.915 283.158 252.437 283.158 253.046C283.158 253.655 283.041 254.181 282.808 254.624C282.575 255.06 282.252 255.395 281.839 255.628C281.433 255.86 280.963 255.977 280.43 255.977C279.904 255.977 279.434 255.86 279.02 255.628C278.607 255.395 278.284 255.06 278.051 254.624C277.818 254.181 277.701 253.655 277.701 253.046C277.701 252.437 277.818 251.915 278.051 251.479C278.284 251.035 278.607 250.697 279.02 250.464C279.434 250.231 279.904 250.114 280.43 250.114ZM280.43 250.892C279.858 250.892 279.411 251.084 279.088 251.467C278.765 251.851 278.603 252.377 278.603 253.046C278.603 253.715 278.765 254.241 279.088 254.624C279.411 255.007 279.858 255.199 280.43 255.199C281.001 255.199 281.448 255.007 281.771 254.624C282.094 254.241 282.256 253.715 282.256 253.046C282.256 252.377 282.094 251.851 281.771 251.467C281.448 251.084 281.001 250.892 280.43 250.892ZM287.054 255.977C286.588 255.977 286.16 255.86 285.769 255.628C285.378 255.395 285.066 255.06 284.833 254.624C284.6 254.181 284.484 253.655 284.484 253.046C284.484 252.422 284.608 251.892 284.856 251.456C285.104 251.02 285.431 250.689 285.837 250.464C286.243 250.231 286.679 250.114 287.145 250.114C287.55 250.114 287.911 250.208 288.227 250.396C288.543 250.577 288.776 250.825 288.926 251.14V247.634H289.828V255.864H289.039L288.982 254.804C288.824 255.188 288.569 255.481 288.216 255.684C287.862 255.879 287.475 255.977 287.054 255.977ZM287.145 255.188C287.678 255.188 288.107 254.989 288.43 254.59C288.761 254.192 288.926 253.651 288.926 252.967C288.926 252.32 288.764 251.817 288.441 251.456C288.118 251.088 287.701 250.904 287.19 250.904C286.618 250.904 286.175 251.099 285.859 251.49C285.544 251.881 285.386 252.399 285.386 253.046C285.386 253.692 285.54 254.211 285.848 254.602C286.156 254.992 286.588 255.188 287.145 255.188ZM294.281 255.977C293.747 255.977 293.27 255.86 292.849 255.628C292.435 255.395 292.112 255.06 291.879 254.624C291.646 254.181 291.53 253.655 291.53 253.046C291.53 252.437 291.646 251.915 291.879 251.479C292.112 251.035 292.432 250.697 292.838 250.464C293.243 250.231 293.706 250.114 294.224 250.114C294.75 250.114 295.198 250.227 295.566 250.453C295.942 250.678 296.227 250.986 296.423 251.377C296.618 251.76 296.716 252.193 296.716 252.674C296.716 252.801 296.712 252.918 296.705 253.023C296.697 253.128 296.686 253.222 296.671 253.305H292.42C292.465 253.899 292.65 254.361 292.973 254.692C293.296 255.022 293.724 255.188 294.258 255.188C294.671 255.188 295.006 255.109 295.261 254.951C295.525 254.793 295.735 254.579 295.893 254.308L296.603 254.726C296.393 255.109 296.088 255.413 295.69 255.639C295.299 255.864 294.829 255.977 294.281 255.977ZM294.202 250.904C293.728 250.904 293.337 251.046 293.029 251.332C292.729 251.61 292.537 252.001 292.454 252.505H295.814C295.791 251.993 295.634 251.599 295.34 251.321C295.047 251.043 294.668 250.904 294.202 250.904ZM302.274 255.864V250.227H303.006L303.13 251.152C303.446 250.46 304.047 250.114 304.934 250.114C305.032 250.114 305.137 250.122 305.25 250.137C305.37 250.152 305.472 250.182 305.554 250.227L305.397 251.05C305.314 251.02 305.224 250.998 305.126 250.983C305.028 250.968 304.889 250.96 304.709 250.96C304.476 250.96 304.239 251.028 303.999 251.163C303.766 251.298 303.57 251.505 303.412 251.783C303.254 252.054 303.176 252.399 303.176 252.82V255.864H302.274ZM309.056 255.977C308.522 255.977 308.045 255.86 307.624 255.628C307.211 255.395 306.887 255.06 306.654 254.624C306.421 254.181 306.305 253.655 306.305 253.046C306.305 252.437 306.421 251.915 306.654 251.479C306.887 251.035 307.207 250.697 307.613 250.464C308.019 250.231 308.481 250.114 309 250.114C309.526 250.114 309.973 250.227 310.341 250.453C310.717 250.678 311.003 250.986 311.198 251.377C311.393 251.76 311.491 252.193 311.491 252.674C311.491 252.801 311.487 252.918 311.48 253.023C311.472 253.128 311.461 253.222 311.446 253.305H307.196C307.241 253.899 307.425 254.361 307.748 254.692C308.071 255.022 308.5 255.188 309.033 255.188C309.447 255.188 309.781 255.109 310.037 254.951C310.3 254.793 310.51 254.579 310.668 254.308L311.378 254.726C311.168 255.109 310.863 255.413 310.465 255.639C310.074 255.864 309.605 255.977 309.056 255.977ZM308.977 250.904C308.503 250.904 308.113 251.046 307.804 251.332C307.504 251.61 307.312 252.001 307.229 252.505H310.589C310.567 251.993 310.409 251.599 310.116 251.321C309.823 251.043 309.443 250.904 308.977 250.904ZM316.784 250.227H317.731L315.386 255.864H314.484L312.139 250.227H313.165L314.946 254.951L316.784 250.227ZM319.361 249.145C319.158 249.145 318.992 249.085 318.864 248.964C318.744 248.837 318.684 248.671 318.684 248.468C318.684 248.265 318.744 248.104 318.864 247.984C318.992 247.856 319.158 247.792 319.361 247.792C319.563 247.792 319.725 247.856 319.845 247.984C319.973 248.104 320.037 248.265 320.037 248.468C320.037 248.671 319.973 248.837 319.845 248.964C319.725 249.085 319.563 249.145 319.361 249.145ZM319.811 250.227V255.864H318.91V250.227H319.811ZM324.261 255.977C323.727 255.977 323.25 255.86 322.829 255.628C322.415 255.395 322.092 255.06 321.859 254.624C321.626 254.181 321.51 253.655 321.51 253.046C321.51 252.437 321.626 251.915 321.859 251.479C322.092 251.035 322.412 250.697 322.817 250.464C323.223 250.231 323.686 250.114 324.204 250.114C324.73 250.114 325.177 250.227 325.546 250.453C325.922 250.678 326.207 250.986 326.403 251.377C326.598 251.76 326.696 252.193 326.696 252.674C326.696 252.801 326.692 252.918 326.684 253.023C326.677 253.128 326.666 253.222 326.651 253.305H322.4C322.445 253.899 322.63 254.361 322.953 254.692C323.276 255.022 323.704 255.188 324.238 255.188C324.651 255.188 324.986 255.109 325.241 254.951C325.504 254.793 325.715 254.579 325.873 254.308L326.583 254.726C326.373 255.109 326.068 255.413 325.67 255.639C325.279 255.864 324.809 255.977 324.261 255.977ZM324.182 250.904C323.708 250.904 323.317 251.046 323.009 251.332C322.708 251.61 322.517 252.001 322.434 252.505H325.794C325.771 251.993 325.613 251.599 325.32 251.321C325.027 251.043 324.648 250.904 324.182 250.904ZM335.348 250.227H336.351L334.39 255.864H333.488L331.898 251.377L330.399 255.864H329.497L327.535 250.227H328.538L329.959 254.816L331.492 250.227H332.394L333.927 254.816L335.348 250.227ZM306.439 260.873V261.719H304.128V264.098H303.282V261.719H300.96V260.873H303.282V258.506H304.128V260.873H306.439ZM274.255 272.977C273.789 272.977 273.361 272.86 272.97 272.628C272.579 272.395 272.267 272.06 272.034 271.624C271.801 271.181 271.685 270.655 271.685 270.046C271.685 269.422 271.809 268.892 272.057 268.456C272.305 268.02 272.632 267.689 273.038 267.464C273.444 267.231 273.88 267.114 274.346 267.114C274.751 267.114 275.112 267.208 275.428 267.396C275.744 267.577 275.977 267.825 276.127 268.14V264.634H277.029V272.864H276.24L276.183 271.804C276.025 272.188 275.77 272.481 275.417 272.684C275.063 272.879 274.676 272.977 274.255 272.977ZM274.346 272.188C274.879 272.188 275.308 271.989 275.631 271.59C275.962 271.192 276.127 270.651 276.127 269.967C276.127 269.32 275.965 268.817 275.642 268.456C275.319 268.088 274.902 267.904 274.391 267.904C273.82 267.904 273.376 268.099 273.06 268.49C272.745 268.881 272.587 269.399 272.587 270.046C272.587 270.692 272.741 271.211 273.049 271.602C273.357 271.992 273.789 272.188 274.346 272.188ZM281.482 272.977C280.948 272.977 280.471 272.86 280.05 272.628C279.636 272.395 279.313 272.06 279.08 271.624C278.847 271.181 278.731 270.655 278.731 270.046C278.731 269.437 278.847 268.915 279.08 268.479C279.313 268.035 279.633 267.697 280.039 267.464C280.444 267.231 280.907 267.114 281.425 267.114C281.951 267.114 282.399 267.227 282.767 267.453C283.143 267.678 283.428 267.986 283.624 268.377C283.819 268.76 283.917 269.193 283.917 269.674C283.917 269.801 283.913 269.918 283.906 270.023C283.898 270.128 283.887 270.222 283.872 270.305H279.621C279.666 270.899 279.851 271.361 280.174 271.692C280.497 272.022 280.925 272.188 281.459 272.188C281.872 272.188 282.207 272.109 282.462 271.951C282.726 271.793 282.936 271.579 283.094 271.308L283.804 271.726C283.594 272.109 283.289 272.413 282.891 272.639C282.5 272.864 282.03 272.977 281.482 272.977ZM281.403 267.904C280.929 267.904 280.538 268.046 280.23 268.332C279.93 268.61 279.738 269.001 279.655 269.505H283.015C282.992 268.993 282.835 268.599 282.541 268.321C282.248 268.043 281.869 267.904 281.403 267.904ZM285.632 275.232V267.227H286.421L286.478 268.219C286.651 267.889 286.906 267.622 287.244 267.419C287.59 267.216 287.985 267.114 288.428 267.114C288.887 267.114 289.308 267.231 289.691 267.464C290.082 267.697 290.394 268.031 290.627 268.467C290.86 268.903 290.976 269.429 290.976 270.046C290.976 270.655 290.856 271.181 290.615 271.624C290.382 272.06 290.07 272.395 289.68 272.628C289.289 272.86 288.86 272.977 288.394 272.977C287.973 272.977 287.601 272.887 287.278 272.706C286.955 272.519 286.707 272.278 286.534 271.985V275.232H285.632ZM288.304 272.188C288.86 272.188 289.293 271.992 289.601 271.602C289.916 271.211 290.074 270.692 290.074 270.046C290.074 269.399 289.92 268.881 289.612 268.49C289.311 268.099 288.887 267.904 288.338 267.904C287.797 267.904 287.361 268.099 287.03 268.49C286.699 268.881 286.534 269.399 286.534 270.046C286.534 270.692 286.696 271.211 287.019 271.602C287.342 271.992 287.77 272.188 288.304 272.188ZM293.557 264.634V271.432C293.557 271.718 293.61 271.917 293.715 272.03C293.82 272.135 293.99 272.188 294.223 272.188C294.373 272.188 294.497 272.177 294.595 272.154C294.692 272.131 294.824 272.09 294.989 272.03L294.843 272.819C294.595 272.924 294.316 272.977 294.008 272.977C293.106 272.977 292.655 272.473 292.655 271.466V264.634H293.557ZM298.48 267.114C299.014 267.114 299.484 267.231 299.89 267.464C300.303 267.697 300.626 268.035 300.859 268.479C301.092 268.915 301.209 269.437 301.209 270.046C301.209 270.655 301.092 271.181 300.859 271.624C300.626 272.06 300.303 272.395 299.89 272.628C299.484 272.86 299.014 272.977 298.48 272.977C297.954 272.977 297.484 272.86 297.071 272.628C296.658 272.395 296.335 272.06 296.102 271.624C295.869 271.181 295.752 270.655 295.752 270.046C295.752 269.437 295.869 268.915 296.102 268.479C296.335 268.035 296.658 267.697 297.071 267.464C297.484 267.231 297.954 267.114 298.48 267.114ZM298.48 267.892C297.909 267.892 297.462 268.084 297.139 268.467C296.816 268.851 296.654 269.377 296.654 270.046C296.654 270.715 296.816 271.241 297.139 271.624C297.462 272.007 297.909 272.199 298.48 272.199C299.052 272.199 299.499 272.007 299.822 271.624C300.145 271.241 300.307 270.715 300.307 270.046C300.307 269.377 300.145 268.851 299.822 268.467C299.499 268.084 299.052 267.892 298.48 267.892ZM307.375 267.227L304.726 273.811C304.508 274.36 304.26 274.743 303.982 274.961C303.711 275.179 303.377 275.288 302.978 275.288C302.723 275.288 302.486 275.251 302.268 275.175C302.058 275.108 301.87 275.014 301.704 274.894L301.952 274.104C302.103 274.24 302.261 274.337 302.426 274.398C302.599 274.465 302.768 274.499 302.933 274.499C303.129 274.499 303.313 274.439 303.486 274.319C303.658 274.198 303.816 273.954 303.959 273.586L304.252 272.853L303.689 271.511L301.896 267.227H302.922L304.331 270.903L304.681 271.906L305.087 270.79L306.406 267.227H307.375ZM308.555 272.864V267.227H309.344L309.4 268.107C309.603 267.761 309.866 267.509 310.19 267.351C310.52 267.193 310.858 267.114 311.204 267.114C311.603 267.114 311.978 267.205 312.332 267.385C312.685 267.565 312.955 267.844 313.143 268.219C313.264 267.964 313.433 267.757 313.651 267.599C313.869 267.434 314.105 267.314 314.361 267.238C314.624 267.156 314.872 267.114 315.105 267.114C315.466 267.114 315.808 267.19 316.131 267.34C316.462 267.49 316.732 267.723 316.943 268.039C317.153 268.355 317.258 268.76 317.258 269.257V272.864H316.356V269.347C316.356 268.836 316.229 268.467 315.973 268.242C315.718 268.016 315.402 267.904 315.026 267.904C314.733 267.904 314.459 267.975 314.203 268.118C313.948 268.261 313.741 268.471 313.583 268.749C313.433 269.027 313.358 269.369 313.358 269.775V272.864H312.456V269.347C312.456 268.836 312.328 268.467 312.072 268.242C311.817 268.016 311.501 267.904 311.125 267.904C310.877 267.904 310.622 267.971 310.359 268.107C310.103 268.234 309.889 268.441 309.716 268.727C309.543 269.012 309.457 269.388 309.457 269.854V272.864H308.555ZM321.657 272.977C321.123 272.977 320.646 272.86 320.225 272.628C319.811 272.395 319.488 272.06 319.255 271.624C319.022 271.181 318.906 270.655 318.906 270.046C318.906 269.437 319.022 268.915 319.255 268.479C319.488 268.035 319.808 267.697 320.214 267.464C320.619 267.231 321.082 267.114 321.6 267.114C322.126 267.114 322.574 267.227 322.942 267.453C323.318 267.678 323.603 267.986 323.799 268.377C323.994 268.76 324.092 269.193 324.092 269.674C324.092 269.801 324.088 269.918 324.081 270.023C324.073 270.128 324.062 270.222 324.047 270.305H319.796C319.842 270.899 320.026 271.361 320.349 271.692C320.672 272.022 321.101 272.188 321.634 272.188C322.048 272.188 322.382 272.109 322.638 271.951C322.901 271.793 323.111 271.579 323.269 271.308L323.979 271.726C323.769 272.109 323.464 272.413 323.066 272.639C322.675 272.864 322.205 272.977 321.657 272.977ZM321.578 267.904C321.104 267.904 320.713 268.046 320.405 268.332C320.105 268.61 319.913 269.001 319.83 269.505H323.19C323.167 268.993 323.01 268.599 322.716 268.321C322.423 268.043 322.044 267.904 321.578 267.904ZM325.807 272.864V267.227H326.596L326.653 268.107C326.848 267.753 327.115 267.502 327.453 267.351C327.791 267.193 328.156 267.114 328.547 267.114C328.953 267.114 329.321 267.193 329.652 267.351C329.982 267.502 330.245 267.735 330.441 268.05C330.644 268.366 330.745 268.768 330.745 269.257V272.864H329.843V269.572C329.843 268.948 329.708 268.516 329.438 268.276C329.174 268.028 328.848 267.904 328.457 267.904C328.186 267.904 327.916 267.968 327.645 268.095C327.374 268.223 327.149 268.43 326.968 268.715C326.796 269.001 326.709 269.384 326.709 269.865V272.864H325.807ZM336.093 267.227V268.005H334.041V271.308C334.041 271.587 334.12 271.793 334.278 271.929C334.435 272.064 334.638 272.131 334.886 272.131C335.104 272.131 335.292 272.094 335.45 272.019C335.608 271.944 335.751 271.842 335.878 271.714L336.194 272.47C336.021 272.628 335.815 272.752 335.574 272.842C335.341 272.932 335.07 272.977 334.762 272.977C334.477 272.977 334.21 272.928 333.962 272.83C333.714 272.725 333.515 272.564 333.364 272.346C333.222 272.12 333.146 271.827 333.139 271.466V268.005H332.011V267.227H333.139V265.874L334.041 265.626V267.227H336.093Z" fill="black"/>
<path d="M62.8619 196.106C62.6221 196.412 62.6761 196.855 62.9825 197.095L67.9766 201.003C68.2831 201.243 68.726 201.189 68.9658 200.883C69.2057 200.576 69.1516 200.133 68.8452 199.893L64.406 196.419L67.8801 191.98C68.12 191.674 68.066 191.231 67.7595 190.991C67.453 190.751 67.0102 190.805 66.7703 191.112L62.8619 196.106ZM178.891 181.748L63.3315 195.84L63.5021 197.239L179.062 183.147L178.891 181.748Z" fill="black"/>
<path d="M171.076 139.735C171.316 140.041 171.262 140.484 170.955 140.724L165.961 144.632C165.655 144.872 165.212 144.818 164.972 144.512C164.732 144.205 164.786 143.762 165.093 143.522L169.532 140.048L166.058 135.609C165.818 135.303 165.872 134.86 166.178 134.62C166.485 134.38 166.928 134.434 167.167 134.74L171.076 139.735ZM55.0465 125.377L170.606 139.469L170.436 140.868L54.8759 126.776L55.0465 125.377Z" fill="black"/>
<path d="M62.8612 266.569C62.6219 266.876 62.6766 267.319 62.9834 267.558L67.9836 271.459C68.2904 271.698 68.7332 271.644 68.9726 271.337C69.2119 271.03 69.1572 270.587 68.8504 270.348L64.4058 266.881L67.873 262.436C68.1124 262.129 68.0577 261.686 67.7509 261.447C67.444 261.208 67.0013 261.262 66.7619 261.569L62.8612 266.569ZM302.906 236.709L63.3304 266.303L63.5032 267.702L303.078 238.108L302.906 236.709Z" fill="black"/>
<path d="M295.093 112.959C295.332 113.266 295.277 113.709 294.97 113.948L289.97 117.849C289.663 118.088 289.221 118.033 288.981 117.727C288.742 117.42 288.797 116.977 289.103 116.738L293.548 113.27L290.081 108.826C289.841 108.519 289.896 108.076 290.203 107.837C290.51 107.597 290.953 107.652 291.192 107.959L295.093 112.959ZM55.0483 83.0985L294.623 112.693L294.451 114.092L54.8755 84.4972L55.0483 83.0985Z" fill="black"/>
<path d="M178.479 174.487C178.754 174.762 179.2 174.762 179.476 174.487L183.96 170.002C184.235 169.727 184.235 169.281 183.96 169.006C183.685 168.731 183.238 168.731 182.963 169.006L178.977 172.992L174.991 169.006C174.716 168.731 174.27 168.731 173.995 169.006C173.72 169.281 173.72 169.727 173.995 170.002L178.479 174.487ZM178.273 141.575V173.988H179.682V141.575H178.273Z" fill="black"/>
<path d="M302.495 147.711C302.77 147.986 303.216 147.986 303.491 147.711L307.975 143.227C308.251 142.952 308.251 142.506 307.975 142.23C307.7 141.955 307.254 141.955 306.979 142.23L302.993 146.216L299.007 142.23C298.732 141.955 298.286 141.955 298.01 142.23C297.735 142.506 297.735 142.952 298.01 143.227L302.495 147.711ZM302.288 114.8V147.213H303.698V114.8H302.288Z" fill="black"/>
<path d="M302.495 188.579C302.77 188.855 303.216 188.855 303.491 188.579L307.975 184.095C308.251 183.82 308.251 183.374 307.975 183.099C307.7 182.823 307.254 182.823 306.979 183.099L302.993 187.085L299.007 183.099C298.732 182.823 298.286 182.823 298.01 183.099C297.735 183.374 297.735 183.82 298.01 184.095L302.495 188.579ZM302.288 155.668V188.081H303.698V155.668H302.288Z" fill="black"/>
<path d="M302.495 229.45C302.77 229.726 303.216 229.726 303.491 229.45L307.975 224.966C308.251 224.691 308.251 224.245 307.975 223.97C307.7 223.694 307.254 223.694 306.979 223.97L302.993 227.956L299.007 223.97C298.732 223.694 298.286 223.694 298.01 223.97C297.735 224.245 297.735 224.691 298.01 224.966L302.495 229.45ZM302.288 196.539V228.952H303.698V196.539H302.288Z" fill="black"/>
<path d="M54.4646 116.709C54.7398 116.984 55.186 116.984 55.4611 116.709L59.9454 112.225C60.2206 111.95 60.2206 111.504 59.9454 111.228C59.6702 110.953 59.2241 110.953 58.9489 111.228L54.9629 115.214L50.9769 111.228C50.7017 110.953 50.2556 110.953 49.9804 111.228C49.7052 111.504 49.7052 111.95 49.9804 112.225L54.4646 116.709ZM54.2583 83.7979V116.211H55.6675V83.7979H54.2583Z" fill="black"/>
<path d="M54.4629 270.32C54.7381 270.595 55.1843 270.595 55.4594 270.32L59.9437 265.836C60.2189 265.561 60.2189 265.115 59.9437 264.839C59.6685 264.564 59.2224 264.564 58.9472 264.839L54.9612 268.825L50.9752 264.839C50.7 264.564 50.2539 264.564 49.9787 264.839C49.7035 265.115 49.7035 265.561 49.9787 265.836L54.4629 270.32ZM54.2565 195.131L54.2566 269.822L55.6658 269.822L55.6658 195.131L54.2565 195.131Z" fill="black"/>
<path d="M54.4644 188.582C54.7396 188.857 55.1857 188.857 55.4609 188.582L59.9452 184.098C60.2203 183.823 60.2203 183.377 59.9452 183.101C59.67 182.826 59.2238 182.826 58.9487 183.101L54.9626 187.087L50.9766 183.101C50.7015 182.826 50.2553 182.826 49.9801 183.101C49.705 183.377 49.705 183.823 49.9801 184.098L54.4644 188.582ZM54.258 124.667L54.258 188.084H55.6673L55.6673 124.667H54.258Z" fill="black"/>
<circle cx="54.9615" cy="83.7984" r="8.45559" fill="#0A56CA"/>
<circle cx="54.9612" cy="124.667" r="8.45559" fill="#0A56CA"/>
<circle cx="54.9612" cy="278.277" r="8.45559" fill="#0A56CA"/>
<circle cx="54.9612" cy="196.54" r="8.45559" fill="#0A56CA"/>
<circle cx="178.977" cy="141.578" r="8.45559" fill="#FCB54D"/>
<circle cx="178.977" cy="182.447" r="8.45559" fill="#FCB54D"/>
<circle cx="302.992" cy="114.802" r="8.45559" fill="#FCB54D"/>
<circle cx="302.992" cy="155.668" r="8.45559" fill="#FCB54D"/>
<circle cx="302.992" cy="196.537" r="8.45559" fill="#FCB54D"/>
<circle cx="302.992" cy="237.409" r="8.45559" fill="#FCB54D"/>
</svg>
